<svg width="232" height="34" viewBox="0 0 232 34" fill="none" xmlns="http://www.w3.org/2000/svg"><path d="M27.017 4.403H4.806L6.409 0H28.62L27.017 4.403ZM26.215 6.605H4.003L2.4 11.008H24.612L26.215 6.605ZM23.815 13.21H1.603L0 17.613H22.212L23.815 13.21Z" fill="#00AAFF"/><path d="M79.937 28.589H83.913C85.421 28.589 86.336 28.223 86.976 27.401C87.296 26.99 87.753 26.258 87.753 24.887C87.753 23.516 87.296 22.556 86.382 21.87C85.834 21.458 85.102 21.23 83.868 21.23H79.937V28.589ZM74.681 33.022V6.605H91.867L90.359 11.039H79.937V16.889H84.187C87.615 16.889 89.397 17.712 90.631 18.763C91.591 19.586 93.236 21.414 93.236 25.025C93.236 28.59 91.545 30.555 90.128 31.561C88.483 32.704 86.746 33.023 83.227 33.023L74.681 33.022ZM59.461 33.022V11.039H51.829V6.605H73.036L71.528 11.039H64.763V33.023L59.461 33.022ZM38.3 17.163H41.271C42.185 17.163 42.642 17.163 43.099 17.026C44.333 16.66 45.11 15.564 45.11 14.055C45.11 12.272 44.287 11.495 43.099 11.13C42.596 10.993 42.094 10.947 41.088 10.947H38.3V17.163ZM38.345 21.733V28.68H42.002C43.099 28.68 44.104 28.589 44.835 27.903C45.566 27.217 45.886 26.349 45.886 25.206C45.886 24.338 45.657 23.515 45.2 22.921C44.423 21.961 43.463 21.733 41.818 21.733H38.345ZM46.801 18.945V19.037C47.807 19.402 48.766 20.042 49.269 20.454C50.823 21.734 51.509 23.425 51.509 25.619C51.509 29.229 49.59 31.835 46.436 32.658C45.477 32.932 44.471 33.023 42.597 33.023H33.045V6.605H41.501C43.238 6.605 44.426 6.696 45.478 6.971C48.54 7.794 50.551 9.896 50.551 13.233C50.551 15.015 49.911 16.524 48.86 17.529C48.4 17.986 47.761 18.534 46.801 18.945ZM105.683 6.602H110.514V17.812H110.628L118.064 6.602H123.688L114.78 18.907L124.405 33.023H118.554L110.628 20.606H110.514V33.023H105.683V6.602ZM124.955 27.663C124.955 22.228 129.258 20.907 135.184 20.907H136.128V20.228C136.128 18.303 135.184 16.492 132.505 16.492C130.165 16.492 127.9 17.662 126.994 18.417V14.605C128.315 14.001 130.089 13.17 133.071 13.17C139.11 13.17 140.506 16.114 140.506 21.021V33.023H136.279V30.381H136.204C135.26 31.928 133.713 33.325 130.768 33.325C127.521 33.325 124.955 31.211 124.955 27.663ZM136.127 25.172V23.927H135.712C131.711 23.927 129.333 24.531 129.333 27.361C129.333 29.135 130.503 30.154 132.315 30.154C134.466 30.154 136.127 28.38 136.127 25.172ZM159.724 13.472V33.023H155.044V17.02H149.043V33.023H144.363V13.472H159.724ZM168.315 13.472V23.172L168.202 26.645H168.278L174.694 13.473H179.563V33.024H174.883V23.475L174.996 19.852H174.883L168.278 33.024H163.635V13.472H168.315ZM196.505 13.472V17.02H191.523V33.023H186.843V17.02H181.861V13.472H196.505ZM197.204 27.663C197.204 22.228 201.507 20.907 207.432 20.907H208.376V20.228C208.376 18.303 207.432 16.492 204.753 16.492C202.413 16.492 200.148 17.662 199.242 18.417V14.605C200.563 14.001 202.337 13.17 205.319 13.17C211.358 13.17 212.755 16.114 212.755 21.021V33.023H208.527V30.381H208.452C207.508 31.928 205.961 33.325 203.017 33.325C199.77 33.325 197.204 31.211 197.204 27.663ZM208.375 25.172V23.927H207.96C203.96 23.927 201.581 24.531 201.581 27.361C201.581 29.135 202.751 30.154 204.563 30.154C206.715 30.154 208.375 28.38 208.375 25.172ZM214.984 32.872V29.551C215.249 29.664 215.702 29.778 216.079 29.778C217.551 29.778 218.155 29.174 218.155 19.059V13.473H231.44V33.024H226.76V17.02H222.193V19.058C222.193 31.815 220.683 33.325 217.249 33.325C216.457 33.325 215.664 33.098 214.984 32.872Z" fill="#0A2896"/></svg>